Coordinates
version=1
nRows=12
nColumns=24
inDegrees=yes

Units are S.I. units (second, meters, Newtons, ...)
Angles are in degrees.

endheader
time	pelvis_tilt	pelvis_list	pelvis_rotation	pelvis_tx	pelvis_ty	pelvis_tz	hip_flexion_r	hip_adduction_r	hip_rotation_r	knee_angle_r	ankle_angle_r	subtalar_angle_r	mtp_angle_r	hip_flexion_l	hip_adduction_l	hip_rotation_l	knee_angle_l	ankle_angle_l	subtalar_angle_l	mtp_angle_l	lumbar_extension	lumbar_bending	lumbar_rotation
      0.50800000	     -1.56099425	     -0.02042319	      6.43159039	     -0.70689290	      0.89059281	      0.28924070	     25.80310811	     -0.57150759	     -8.24082105	     -2.18277116	      4.61672406	      1.08247879	      7.87974951	    -18.85619680	      0.02498623	      4.02425197	     -5.31226260	     14.18487351	      0.45223152	      7.58439512	     -5.70713352	     -0.22204794	    -10.24433355
      0.51216667	     -1.56024115	     -0.05406890	      6.49060540	     -0.70111267	      0.88934253	      0.28955892	     25.97196150	     -0.49613363	     -8.00591844	     -2.66615542	      4.55884945	      0.93660215	      7.86571480	    -19.05583857	     -0.10076868	      4.12021751	     -5.72071343	     14.27803697	      0.46783725	      7.61592851	     -5.72058652	     -0.14573181	    -10.26304903
      0.51633333	     -1.64929978	     -0.10619873	      6.52918187	     -0.69530369	      0.88797201	      0.28997637	     26.22524662	     -0.38843930	     -7.61328520	     -3.19426694	      4.38697915	      0.53007037	      7.79797126	    -19.07364058	     -0.24297870	      4.00677368	     -6.30663729	     14.46267694	      0.86865289	      7.82028543	     -5.59902975	     -0.03609531	    -10.25545115
      0.52050000	     -1.70961279	     -0.15008548	      6.54321820	     -0.68946603	      0.88665947	      0.29042965	     26.49392823	     -0.28039906	     -7.29342059	     -3.89583860	      4.27496786	      0.21831894	      7.77908101	    -19.15919821	     -0.36443284	      4.01854393	     -6.82332966	     14.57281325	      0.99723528	      7.92379122	     -5.50939095	      0.06092318	    -10.23105480
      0.52466667	     -1.76632317	     -0.21999202	      6.54878276	     -0.68357171	      0.88538192	      0.29091095	     26.75753231	     -0.13789002	     -6.98351147	     -4.65844703	      4.06884317	     -0.16126249	      7.76712935	    -19.21446467	     -0.51378108	      3.95057334	     -7.41329038	     14.67178476	      1.19986766	      8.04352357	     -5.41500523	      0.20152149	    -10.18135600
      0.52883333	     -1.82611795	     -0.30312169	      6.53840879	     -0.67763598	      0.88412091	      0.29144871	     27.03686812	      0.03038845	     -6.67825627	     -5.50033010	      3.78565582	     -0.60733626	      7.76217638	    -19.24584598	     -0.67701632	      3.81968351	     -8.04996129	     14.75329470	      1.48393049	      8.19948327	     -5.31304876	      0.33957382	    -10.10315762
      0.53300000	     -1.86611904	     -0.39741970	      6.50907012	     -0.67165019	      0.88291788	      0.29203444	     27.30468386	      0.22334901	     -6.38925113	     -6.41067240	      3.45843695	     -1.06120874	      7.76661628	    -19.28991993	     -0.84989638	      3.66317035	     -8.70773486	     14.79581105	      1.75873828	      8.37856322	     -5.23060342	      0.49731489	    -10.00606191
      0.53716667	     -1.91719429	     -0.49816569	      6.47016436	     -0.66563101	      0.88173539	      0.29265479	     27.59534227	      0.42867659	     -6.10738914	     -7.38622938	      3.06827001	     -1.55993510	      7.78135249	    -19.29501189	     -1.02732753	      3.48244893	     -9.42017479	     14.81558255	      2.06513626	      8.60691929	     -5.12772111	      0.65616215	     -9.88548184
      0.54133333	     -1.95959487	     -0.60493396	      6.40975564	     -0.65955592	      0.88059825	      0.29332156	     27.88539284	      0.65313127	     -5.83734116	     -8.41621731	      2.66339808	     -2.05375656	      7.80368993	    -19.30519820	     -1.20420713	      3.29560673	    -10.14973273	     14.79047441	      2.32375718	      8.85365912	     -5.03552625	      0.82639422	     -9.75233095
      0.54550000	     -2.00049525	     -0.71982860	      6.34080716	     -0.65344970	      0.87950238	      0.29401442	     28.18656641	      0.89043497	     -5.58816903	     -9.50414679	      2.22213177	     -2.54711862	      7.83116243	    -19.30143075	     -1.38756931	      3.10236774	    -10.91194005	     14.72223333	      2.56287630	      9.11886949	     -4.94264083	      1.01146928	     -9.60644953
      0.54966667	     -2.04152436	     -0.83588323	      6.25423120	     -0.64730567	      0.87844325	      0.29474491	     28.49725039	      1.13824522	     -5.33566788	    -10.63904584	      1.77658067	     -3.04659828	      7.86176941	    -19.27724176	     -1.56674002	      2.88482913	    -11.72231508	     14.60487056	      2.78994838	      9.40237689	     -4.84183300	      1.19548706	     -9.44273645
      0.55383333	     -2.02853583	     -0.99411009	      6.18066305	     -0.64108713	      0.87751591	      0.29548565	     28.73948473	      1.42868157	     -5.16469586	    -11.77460110	      1.26965886	     -3.54542359	      8.58075809	    -19.27145822	     -1.81754812	      2.55274500	    -12.59206608	     14.44867466	      3.16831208	     15.00228558	     -4.80152878	      1.43706480	     -9.39336535
